<svg xmlns="http://www.w3.org/2000/svg" viewBox="0 0 384.69 384.68"><defs><style>.a{fill:#231f20;}</style></defs><title>BullseyeLogo</title><circle class="a" cx="192.34" cy="192.34" r="48.04"/><path class="a" d="M159.49,235A92,92,0,0,1,235,159.48V129.17A122,122,0,0,0,129.17,235h30.32Z" transform="translate(-57.66 -57.66)"/><path class="a" d="M87.77,235C94.91,157.11,157.11,94.92,235,87.77V57.66C140.56,65,65,140.56,57.66,235H87.77Z" transform="translate(-57.66 -57.66)"/><path class="a" d="M340.51,235h30.32A122,122,0,0,0,265,129.17v30.31A92,92,0,0,1,340.51,235Z" transform="translate(-57.66 -57.66)"/><path class="a" d="M412.23,235h30.11C435,140.56,359.44,65,265,57.66V87.77C342.89,94.92,405.09,157.11,412.23,235Z" transform="translate(-57.66 -57.66)"/><path class="a" d="M412.23,265C405.08,342.89,342.89,405.09,265,412.23v30.11C359.44,435,435,359.44,442.34,265H412.23Z" transform="translate(-57.66 -57.66)"/><path class="a" d="M235,412.23C157.11,405.09,94.92,342.89,87.77,265H57.66C65,359.44,140.56,435,235,442.34V412.23Z" transform="translate(-57.66 -57.66)"/><path class="a" d="M235,340.51A92,92,0,0,1,159.48,265H129.17A122,122,0,0,0,235,370.83V340.51Z" transform="translate(-57.66 -57.66)"/><path class="a" d="M340.52,265A92,92,0,0,1,265,340.51v30.32A122,122,0,0,0,370.83,265H340.52Z" transform="translate(-57.66 -57.66)"/></svg>